#!OML:ASF H:\Not Pregnant\Project 1\Capture day 1\Session 1\non-pregnant.ASF
:FULLY-SPECIFIED
:DEGREES
425
root 11.1342 15.9959 9.89014 192.407 33.8585 -174.524
lowerback -1.2565 2.92304 8.53555
upperback -5.99495 4.37427 -0.175218
thorax -4.94954 1.90723 -5.07283
lowerneck -5.09901 -3.21395 -26.3254
upperneck 10.9035 -4.50482 33.6444
head 5.53401 -1.15093 16.983
rclavicle 1.28356e-013 2.35063e-014
rhumerus -35.8057 26.3241 -99.8027
rradius 113.089
rwrist -9.29001
rhand -11.558 -1.36073
rfingers 7.12502
rthumb 14.4829 -30.8353
lclavicle 1.28356e-013 2.35063e-014
lhumerus -48.8008 -41.4837 120.063
lradius 91.4815
lwrist 44.9896
lhand -4.66791 -14.4726
lfingers 7.12502
lthumb 21.1125 14.398
rfemur -13.8683 29.2231 13.1522
rtibia 25.624
rfoot 4.19322 41.4673
rtoes 34.2557
lfemur -36.149 15.6231 -10.325
ltibia 46.5868
lfoot -10.4854 18.5364
ltoes -17.5456
426
root 11.0928 15.9669 9.80427 192.569 33.6675 -174.386
lowerback -1.36655 2.86259 8.58644
upperback -6.05863 4.29448 -0.179392
thorax -4.96451 1.86586 -5.1008
lowerneck -5.06672 -3.23683 -26.2926
upperneck 10.6045 -4.50172 33.7693
head 5.44696 -1.14767 17.0161
rclavicle -1.06906e-013 -3.926e-014
rhumerus -35.5817 26.131 -99.6146
rradius 111.579
rwrist -8.03407
rhand -11.3396 0.424783
rfingers 7.12502
rthumb 14.6934 -29.0345
lclavicle -1.06906e-013 -3.926e-014
lhumerus -48.6593 -42.0456 120.083
lradius 91.411
lwrist 44.1264
lhand -4.34292 -14.5657
lfingers 7.12502
lthumb 21.4246 14.2697
rfemur -13.6454 29.0181 13.0434
rtibia 25.5483
rfoot 4.1841 41.5904
rtoes 34.5707
lfemur -36.3339 16.6866 -10.8383
ltibia 46.5213
lfoot -10.4569 18.2936
ltoes -17.296
427
root 11.0506 15.9331 9.71841 192.71 33.4118 -174.257
lowerback -1.47545 2.79277 8.64332
upperback -6.1067 4.2008 -0.176559
thorax -4.96586 1.81814 -5.12426
lowerneck -5.053 -3.26145 -26.2653
upperneck 10.2918 -4.49398 33.8717
head 5.35774 -1.14378 17.0379
rclavicle -9.65969e-014 -3.28989e-014
rhumerus -35.3836 25.8187 -99.4204
rradius 109.917
rwrist -6.85375
rhand -11.1132 2.33644
rfingers 7.12502
rthumb 14.9114 -27.1069
lclavicle -9.65969e-014 -3.28989e-014
lhumerus -48.499 -42.6434 120.077
lradius 91.3157
lwrist 43.3287
lhand -4.07974 -14.6397
lfingers 7.12502
lthumb 21.6774 14.1667
rfemur -13.4129 28.8071 12.9472
rtibia 25.5265
rfoot 4.10022 41.7009
rtoes 34.8316
lfemur -36.5579 17.716 -11.4022
ltibia 46.5724
lfoot -10.6976 17.9176
ltoes -16.9106
428
root 11.0075 15.8958 9.6323 192.826 33.0865 -174.14
lowerback -1.58078 2.71288 8.70487
upperback -6.13781 4.09216 -0.167536
thorax -4.9537 1.76356 -5.14344
lowerneck -5.0633 -3.28918 -26.239
upperneck 9.96784 -4.48303 33.9519
head 5.26854 -1.13909 17.0479
rclavicle 8.90804e-014 -6.75868e-015
rhumerus -35.2158 25.3759 -99.2234
rradius 108.082
rwrist -5.80166
rhand -10.8592 4.29851
rfingers 7.12502
rthumb 15.1562 -25.1265
lclavicle 8.90804e-014 -6.75868e-015
lhumerus -48.3082 -43.2721 120.041
lradius 91.1872
lwrist 42.5661
lhand -3.92341 -14.6634
lfingers 7.12502
lthumb 21.8275 14.1256
rfemur -13.1627 28.5786 12.8645
rtibia 25.5509
rfoot 3.99155 41.7953
rtoes 35.0643
lfemur -36.7987 18.6537 -11.9884
ltibia 46.7212
lfoot -11.2416 17.4452
ltoes -16.3519
429
root 10.9634 15.8567 9.54581 192.915 32.695 -174.032
lowerback -1.67424 2.62825 8.77071
upperback -6.15514 3.97688 -0.151913
thorax -4.93499 1.70591 -5.15845
lowerneck -5.07396 -3.32033 -26.2226
upperneck 9.61817 -4.47118 34.0203
head 5.1721 -1.13628 17.0523
rclavicle -1.15426e-013 -2.127e-014
rhumerus -35.0808 24.7985 -99.0204
rradius 106.087
rwrist -4.95478
rhand -10.6017 6.16984
rfingers 7.12502
rthumb 15.4042 -23.2362
lclavicle -1.15426e-013 -2.127e-014
lhumerus -48.0884 -43.9143 119.982
lradius 91.0151
lwrist 41.7679
lhand -3.91803 -14.5913
lfingers 7.12502
lthumb 21.8327 14.1971
rfemur -12.8899 28.3343 12.8
rtibia 25.6146
rfoot 3.98871 41.8454
rtoes 35.3998
lfemur -37.0302 19.4337 -12.5506
ltibia 46.9466
lfoot -12.0265 16.9219
ltoes -15.7271
430
root 10.9182 15.8176 9.45935 192.97 32.2375 -173.941
lowerback -1.7496 2.53889 8.83051
upperback -6.1577 3.85477 -0.134285
thorax -4.9123 1.64521 -5.16863
lowerneck -5.1054 -3.35774 -26.2227
upperneck 9.26496 -4.46115 34.0922
head 5.08066 -1.13358 17.0632
rclavicle -1.69899e-014 3.32964e-014
rhumerus -34.9685 24.1009 -98.8175
rradius 103.944
rwrist -4.40226
rhand -10.294 7.75942
rfingers 7.12502
rthumb 15.7005 -21.6236
lclavicle -1.69899e-014 3.32964e-014
lhumerus -47.8241 -44.5573 119.89
lradius 90.7785
lwrist 40.8498
lhand -4.07784 -14.4168
lfingers 7.12502
lthumb 21.6792 14.3894
rfemur -12.6017 28.0722 12.7463
rtibia 25.7258
rfoot 4.04426 41.8692
rtoes 35.7227
lfemur -37.2319 19.9923 -13.0565
ltibia 47.2289
lfoot -12.9431 16.3775
ltoes -15.1633
